# xmcd
#
# Track frame offsets:
#	150
#	17349
#	44954
#	62196
#	89507
#	103969
#	127586
#	146066
#	162164
#	185794
#	210690
#	230018
#
# Disc length: 3356 seconds
#
# Revision: 1
# Processed by: cddbd v1.5.2PL0 Copyright (c) Steve Scherf et al.
# Submitted via: audiograbber 1.83.01
#
DISCID=b10d1a0c
DTITLE=Curtis Mayfield - The Great Curtis Mayfield [Disc 1]
DYEAR=2000
DGENRE=Blues
TTITLE0=People Get Ready (Live)
TTITLE1=Kung Fu
TTITLE2=Sweet Exorcist
TTITLE3=Mother's Son
TTITLE4=Ain't No Love Lost
TTITLE5=So In Love
TTITLE6=Love To The People
TTITLE7=Only You Babe
TTITLE8=Show Me Love
TTITLE9=Do Do Wap Is Strong Here
TTITLE10=Give Me Your Love (Love Song)
TTITLE11=Love Me, Love Me Now
EXTD=
EXTT0=
EXTT1=
EXTT2=
EXTT3=
EXTT4=
EXTT5=
EXTT6=
EXTT7=
EXTT8=
EXTT9=
EXTT10=
EXTT11=
PLAYORDER=
